<?xml version="1.0" encoding="UTF-8" standalone="no"?>
<svg
   class="svglite"
   width="648.00pt"
   height="432.00pt"
   viewBox="0 0 648.00 432.00"
   version="1.1"
   id="svg36"
   sodipodi:docname="curva_s_sanepar.svg"
   inkscape:version="1.3 (0e150ed6c4, 2023-07-21)"
   xmlns:inkscape="http://www.inkscape.org/namespaces/inkscape"
   xmlns:sodipodi="http://sodipodi.sourceforge.net/DTD/sodipodi-0.dtd"
   xmlns="http://www.w3.org/2000/svg"
   xmlns:svg="http://www.w3.org/2000/svg">
  <sodipodi:namedview
     id="namedview36"
     pagecolor="#ffffff"
     bordercolor="#000000"
     borderopacity="0.25"
     inkscape:showpageshadow="2"
     inkscape:pageopacity="0.0"
     inkscape:pagecheckerboard="0"
     inkscape:deskcolor="#d1d1d1"
     inkscape:document-units="pt"
     inkscape:zoom="1.4381056"
     inkscape:cx="431.47042"
     inkscape:cy="286.83569"
     inkscape:window-width="1920"
     inkscape:window-height="1009"
     inkscape:window-x="1912"
     inkscape:window-y="-8"
     inkscape:window-maximized="1"
     inkscape:current-layer="g1" />
  <defs
     id="defs1">
    <style
       type="text/css"
       id="style1"><![CDATA[
    .svglite line, .svglite polyline, .svglite polygon, .svglite path, .svglite rect, .svglite circle {
      fill: none;
      stroke: #000000;
      stroke-linecap: round;
      stroke-linejoin: round;
      stroke-miterlimit: 10.00;
    }
    .svglite text {
      white-space: pre;
    }
  ]]></style>
  </defs>
  <rect
     width="100%"
     height="100%"
     style="stroke: none; fill: #FFFFFF;"
     id="rect1" />
  <defs
     id="defs2">
    <clipPath
       id="cpMC4wMHw2NDguMDB8MC4wMHw0MzIuMDA=">
      <rect
         x="0.00"
         y="0.00"
         width="648.00"
         height="432.00"
         id="rect2" />
    </clipPath>
  </defs>
  <g
     clip-path="url(#cpMC4wMHw2NDguMDB8MC4wMHw0MzIuMDA=)"
     id="g3">
    <rect
       x="0.00"
       y="0.00"
       width="648.00"
       height="432.00"
       style="stroke-width: 1.16; stroke: none; fill: #FFFFFF;"
       id="rect3" />
  </g>
  <defs
     id="defs4">
    <clipPath
       id="cpNjAuNzV8NjIzLjA5fDY0Ljc0fDM1Ny4wOQ==">
      <rect
         x="60.75"
         y="64.74"
         width="562.34"
         height="292.35"
         id="rect4" />
    </clipPath>
  </defs>
  <g
     clip-path="url(#cpNjAuNzV8NjIzLjA5fDY0Ljc0fDM1Ny4wOQ==)"
     id="g18">
    <polyline
       points="60.75,357.09 623.09,357.09 "
       style="stroke-width: 0.64; stroke: #EEEEEE; stroke-linecap: butt;"
       id="polyline4" />
    <polyline
       points="60.75,301.40 623.09,301.40 "
       style="stroke-width: 0.64; stroke: #EEEEEE; stroke-linecap: butt;"
       id="polyline5" />
    <polyline
       points="60.75,245.71 623.09,245.71 "
       style="stroke-width: 0.64; stroke: #EEEEEE; stroke-linecap: butt;"
       id="polyline6" />
    <polyline
       points="60.75,190.03 623.09,190.03 "
       style="stroke-width: 0.64; stroke: #EEEEEE; stroke-linecap: butt;"
       id="polyline7" />
    <polyline
       points="60.75,134.34 623.09,134.34 "
       style="stroke-width: 0.64; stroke: #EEEEEE; stroke-linecap: butt;"
       id="polyline8" />
    <polyline
       points="60.75,78.66 623.09,78.66 "
       style="stroke-width: 0.64; stroke: #EEEEEE; stroke-linecap: butt;"
       id="polyline9" />
    <polyline
       points="60.75,357.09 60.75,64.74 "
       style="stroke-width: 0.64; stroke: #EEEEEE; stroke-linecap: butt;"
       id="polyline10" />
    <polyline
       points="163.00,357.09 163.00,64.74 "
       style="stroke-width: 0.64; stroke: #EEEEEE; stroke-linecap: butt;"
       id="polyline11" />
    <polyline
       points="265.24,357.09 265.24,64.74 "
       style="stroke-width: 0.64; stroke: #EEEEEE; stroke-linecap: butt;"
       id="polyline12" />
    <polyline
       points="367.48,357.09 367.48,64.74 "
       style="stroke-width: 0.64; stroke: #EEEEEE; stroke-linecap: butt;"
       id="polyline13" />
    <polyline
       points="469.73,357.09 469.73,64.74 "
       style="stroke-width: 0.64; stroke: #EEEEEE; stroke-linecap: butt;"
       id="polyline14" />
    <polyline
       points="571.97,357.09 571.97,64.74 "
       style="stroke-width: 0.64; stroke: #EEEEEE; stroke-linecap: butt;"
       id="polyline15" />
    <polyline
       points="70.98,356.25 81.20,348.23 91.42,339.27 101.65,330.50 111.87,324.51 122.10,316.16 132.32,308.03 142.55,302.24 152.77,298.34 163.00,298.34 173.22,298.34 183.44,298.34 193.67,298.34 203.89,298.34 214.12,298.34 224.34,298.34 234.57,298.34 244.79,298.34 255.02,297.50 265.24,290.21 275.46,286.37 285.69,279.50 295.91,276.79 306.14,274.11 316.36,265.48 326.59,263.45 336.81,260.75 347.03,258.52 357.26,257.13 367.48,252.95 377.71,247.94 387.93,245.71 398.16,243.77 408.38,240.42 418.61,239.37 428.83,237.19 439.05,235.97 449.28,235.30 459.50,233.35 469.73,228.73 479.95,225.47 490.18,222.77 500.40,220.54 510.63,219.54 520.85,216.12 531.07,214.81 "
       style="stroke-width: 2.35; stroke: #27AE60; stroke-linecap: butt;"
       id="polyline16" />
    <polyline
       points="70.98,354.30 81.20,353.88 91.42,339.96 101.65,326.04 111.87,315.32 122.10,311.15 132.32,306.97 142.55,302.79 152.77,298.62 163.00,294.44 173.22,290.26 183.44,286.09 193.67,281.91 203.89,277.73 214.12,273.56 224.34,269.38 234.57,265.20 244.79,261.03 255.02,256.85 265.24,252.68 275.46,248.50 285.69,244.32 295.91,240.15 306.14,235.97 316.36,231.79 326.59,227.62 336.81,223.44 347.03,219.26 357.26,215.09 367.48,210.91 377.71,206.73 387.93,202.56 398.16,198.38 408.38,194.21 418.61,190.03 428.83,185.85 439.05,181.68 449.28,177.50 459.50,173.32 469.73,169.15 479.95,164.97 490.18,160.79 500.40,156.62 510.63,152.44 520.85,148.26 531.07,138.52 541.30,128.77 551.52,119.03 561.75,114.85 571.97,106.50 582.20,98.15 592.42,89.79 602.64,81.44 "
       style="stroke-width: 1.28; stroke: #E74C3C; stroke-opacity: 0.80; stroke-dasharray: 6.83,6.83; stroke-linecap: butt;"
       id="polyline17" />
    <text
       x="623.09"
       y="80.83"
       style="font-size: 9.96px;fill: #E74C3C; font-family: &quot;Arial&quot;;"
       textLength="35.95px"
       lengthAdjust="spacingAndGlyphs"
       id="text17">Previsto</text>
    <text
       x="571.97"
       y="212.80"
       text-anchor="end"
       style="font-size: 9.96px;fill: #27AE60; font-family: &quot;Arial&quot;;"
       textLength="47.04px"
       lengthAdjust="spacingAndGlyphs"
       id="text18">Executado</text>
  </g>
  <g
     clip-path="url(#cpMC4wMHw2NDguMDB8MC4wMHw0MzIuMDA=)"
     id="g36">
    <text
       x="55.37"
       y="360.52"
       text-anchor="end"
       style="font-size: 9.60px;fill: #4D4D4D; font-family: &quot;Arial&quot;;"
       textLength="5.34px"
       lengthAdjust="spacingAndGlyphs"
       id="text19">0</text>
    <text
       x="55.37"
       y="304.83"
       text-anchor="end"
       style="font-size: 9.60px;fill: #4D4D4D; font-family: &quot;Arial&quot;;"
       textLength="16.01px"
       lengthAdjust="spacingAndGlyphs"
       id="text20">200</text>
    <text
       x="55.37"
       y="249.15"
       text-anchor="end"
       style="font-size: 9.60px;fill: #4D4D4D; font-family: &quot;Arial&quot;;"
       textLength="16.01px"
       lengthAdjust="spacingAndGlyphs"
       id="text21">400</text>
    <text
       x="55.37"
       y="193.46"
       text-anchor="end"
       style="font-size: 9.60px;fill: #4D4D4D; font-family: &quot;Arial&quot;;"
       textLength="16.01px"
       lengthAdjust="spacingAndGlyphs"
       id="text22">600</text>
    <text
       x="55.37"
       y="137.78"
       text-anchor="end"
       style="font-size: 9.60px;fill: #4D4D4D; font-family: &quot;Arial&quot;;"
       textLength="16.01px"
       lengthAdjust="spacingAndGlyphs"
       id="text23">800</text>
    <text
       x="55.37"
       y="82.09"
       text-anchor="end"
       style="font-size: 9.60px;fill: #4D4D4D; font-family: &quot;Arial&quot;;"
       textLength="21.34px"
       lengthAdjust="spacingAndGlyphs"
       id="text24">1000</text>
    <text
       x="60.75"
       y="369.34"
       text-anchor="middle"
       style="font-size: 9.60px;fill: #4D4D4D; font-family: &quot;Arial&quot;;"
       textLength="5.34px"
       lengthAdjust="spacingAndGlyphs"
       id="text25">0</text>
    <text
       x="163.00"
       y="369.34"
       text-anchor="middle"
       style="font-size: 9.60px;fill: #4D4D4D; font-family: &quot;Arial&quot;;"
       textLength="10.67px"
       lengthAdjust="spacingAndGlyphs"
       id="text26">10</text>
    <text
       x="265.24"
       y="369.34"
       text-anchor="middle"
       style="font-size: 9.60px;fill: #4D4D4D; font-family: &quot;Arial&quot;;"
       textLength="10.67px"
       lengthAdjust="spacingAndGlyphs"
       id="text27">20</text>
    <text
       x="367.48"
       y="369.34"
       text-anchor="middle"
       style="font-size: 9.60px;fill: #4D4D4D; font-family: &quot;Arial&quot;;"
       textLength="10.67px"
       lengthAdjust="spacingAndGlyphs"
       id="text28">30</text>
    <text
       x="469.73"
       y="369.34"
       text-anchor="middle"
       style="font-size: 9.60px;fill: #4D4D4D; font-family: &quot;Arial&quot;;"
       textLength="10.67px"
       lengthAdjust="spacingAndGlyphs"
       id="text29">40</text>
    <text
       x="571.97"
       y="369.34"
       text-anchor="middle"
       style="font-size: 9.60px;fill: #4D4D4D; font-family: &quot;Arial&quot;;"
       textLength="10.67px"
       lengthAdjust="spacingAndGlyphs"
       id="text30">50</text>
    <text
       x="341.92"
       y="382.94"
       text-anchor="middle"
       style="font-size: 12.00px; font-family: &quot;Arial&quot;;"
       textLength="95.40px"
       lengthAdjust="spacingAndGlyphs"
       id="text31">Dia de perfuração</text>
    <text
       transform="translate(28.52,210.91) rotate(-90)"
       text-anchor="middle"
       style="font-size: 12.00px; font-family: &quot;Arial&quot;;"
       textLength="166.09px"
       lengthAdjust="spacingAndGlyphs"
       id="text32">Metros perfurados (cumulativo)</text>
    <text
       x="341.92"
       y="50.46"
       text-anchor="middle"
       style="font-size: 11.00px;fill: #555555; font-family: &quot;Arial&quot;;"
       textLength="275.98px"
       lengthAdjust="spacingAndGlyphs"
       id="text33">Curva S — Etapa de perfuração  |  Previsto × Executado</text>
    <text
       x="341.92"
       y="32.81"
       text-anchor="middle"
       style="font-size: 18.00px; font-weight: bold; font-family: &quot;Arial&quot;;"
       textLength="86.65px"
       lengthAdjust="spacingAndGlyphs"
       id="text34">SANEPAR</text>
    <text
       x="341.92"
       y="398.80"
       text-anchor="middle"
       style="font-size: 7.50px;fill: #999999; font-family: &quot;Arial&quot;;"
       textLength="304.72px"
       lengthAdjust="spacingAndGlyphs"
       id="text35">Inclui apenas a fase de avanço do poço (primeiro metro perfurado até a profundidade final).</text>
    <text
       x="341.92"
       y="410.50"
       text-anchor="middle"
       style="font-size: 7.50px;fill: #999999; font-family: &quot;Arial&quot;;"
       textLength="409.57px"
       lengthAdjust="spacingAndGlyphs"
       id="text36">Não inclui outras etapas da construção (mobilização, cimentação, desenvolvimento, etc.).  |  Fonte: RDOs  |  Mai–Jun 2026</text>
  </g>
  <path
     style="fill:none;stroke:#000000;stroke-width:1.2;stroke-linejoin:round"
     d="M 151.37104,340.12669 V 253.62896"
     id="path36" />
  <path
     style="fill:none;stroke:#000000;stroke-width:1.2;stroke-linejoin:round"
     d="M 255.89224,340.12669 V 253.62896"
     id="path37" />
  <g
     id="g1"
     transform="translate(-56.269387,37.23535)">
    <text
       xml:space="preserve"
       style="font-weight:bold;font-size:9.99998px;line-height:1.3;font-family:arial;-inkscape-font-specification:'arial Bold';text-align:center;letter-spacing:0.135px;word-spacing:0.21px;text-anchor:middle;white-space:pre;fill:#000000;stroke:none;stroke-width:1.2;stroke-linejoin:round"
       x="260.26212"
       y="281.92285"
       id="text41"><tspan
         sodipodi:role="line"
         id="tspan40"
         style="fill:#000000;stroke:none;stroke-width:1.2"
         x="260.26212"
         y="281.92285">- Retrabalho -</tspan><tspan
         sodipodi:role="line"
         style="fill:#000000;stroke:none;stroke-width:1.2"
         x="260.26212"
         y="294.92282"
         id="tspan42">necessidade</tspan><tspan
         sodipodi:role="line"
         style="fill:#000000;stroke:none;stroke-width:1.2"
         x="260.32962"
         y="307.92279"
         id="tspan37">de repasse</tspan></text>
  </g>
</svg>
