<?xml version="1.0" encoding="UTF-8" standalone="no"?>
<svg
   class="svglite"
   width="464.66489pt"
   height="325.97299pt"
   viewBox="0 0 464.66489 325.97299"
   version="1.1"
   id="svg15"
   sodipodi:docname="pizza_horas_paradas_sanepar.svg"
   inkscape:version="1.3 (0e150ed6c4, 2023-07-21)"
   xmlns:inkscape="http://www.inkscape.org/namespaces/inkscape"
   xmlns:sodipodi="http://sodipodi.sourceforge.net/DTD/sodipodi-0.dtd"
   xmlns="http://www.w3.org/2000/svg"
   xmlns:svg="http://www.w3.org/2000/svg">
  <sodipodi:namedview
     id="namedview15"
     pagecolor="#ffffff"
     bordercolor="#000000"
     borderopacity="0.25"
     inkscape:showpageshadow="2"
     inkscape:pageopacity="0.0"
     inkscape:pagecheckerboard="0"
     inkscape:deskcolor="#d1d1d1"
     inkscape:document-units="pt"
     inkscape:zoom="1.8416667"
     inkscape:cx="323.8914"
     inkscape:cy="221.26697"
     inkscape:window-width="1920"
     inkscape:window-height="1009"
     inkscape:window-x="1912"
     inkscape:window-y="-8"
     inkscape:window-maximized="1"
     inkscape:current-layer="svg15" />
  <defs
     id="defs1">
    <style
       type="text/css"
       id="style1"><![CDATA[
    .svglite line, .svglite polyline, .svglite polygon, .svglite path, .svglite rect, .svglite circle {
      fill: none;
      stroke: #000000;
      stroke-linecap: round;
      stroke-linejoin: round;
      stroke-miterlimit: 10.00;
    }
    .svglite text {
      white-space: pre;
    }
  ]]></style>
    <clipPath
       clipPathUnits="userSpaceOnUse"
       id="clipPath16">
      <g
         id="g17">
        <rect
           x="0"
           y="0"
           width="720"
           height="468"
           id="rect16" />
      </g>
    </clipPath>
    <clipPath
       clipPathUnits="userSpaceOnUse"
       id="clipPath17">
      <g
         id="g18">
        <rect
           x="0"
           y="0"
           width="720"
           height="468"
           id="rect17" />
      </g>
    </clipPath>
    <clipPath
       clipPathUnits="userSpaceOnUse"
       id="clipPath18">
      <g
         id="g19">
        <rect
           x="0"
           y="0"
           width="720"
           height="468"
           id="rect18" />
      </g>
    </clipPath>
    <clipPath
       clipPathUnits="userSpaceOnUse"
       id="clipPath19">
      <g
         id="g20">
        <rect
           x="0"
           y="0"
           width="720"
           height="468"
           id="rect19" />
      </g>
    </clipPath>
    <clipPath
       clipPathUnits="userSpaceOnUse"
       id="clipPath20">
      <g
         id="g21">
        <rect
           x="0"
           y="0"
           width="720"
           height="468"
           id="rect20" />
      </g>
    </clipPath>
    <clipPath
       clipPathUnits="userSpaceOnUse"
       id="clipPath21">
      <g
         id="g22">
        <rect
           x="0"
           y="0"
           width="720"
           height="468"
           id="rect21" />
      </g>
    </clipPath>
    <clipPath
       clipPathUnits="userSpaceOnUse"
       id="clipPath22">
      <g
         id="g23">
        <rect
           x="0"
           y="0"
           width="720"
           height="468"
           id="rect22" />
      </g>
    </clipPath>
    <clipPath
       clipPathUnits="userSpaceOnUse"
       id="clipPath23">
      <g
         id="g24">
        <rect
           x="0"
           y="0"
           width="720"
           height="468"
           id="rect23" />
      </g>
    </clipPath>
    <clipPath
       clipPathUnits="userSpaceOnUse"
       id="clipPath24">
      <g
         id="g25">
        <rect
           x="0"
           y="0"
           width="720"
           height="468"
           id="rect24" />
      </g>
    </clipPath>
    <clipPath
       clipPathUnits="userSpaceOnUse"
       id="clipPath26">
      <g
         id="g27">
        <rect
           x="133.85001"
           y="86.400002"
           width="380.29999"
           height="380.29999"
           id="rect26" />
      </g>
    </clipPath>
  </defs>
  <defs
     id="defs2">
    <clipPath
       id="cpMC4wMHw3MjAuMDB8MC4wMHw0NjguMDA=">
      <rect
         x="0"
         y="0"
         width="720"
         height="468"
         id="rect2" />
    </clipPath>
  </defs>
  <rect
     style="fill:#ffffff;fill-opacity:1;stroke:none;stroke-width:1.2;stroke-linejoin:round"
     id="rect30"
     width="464.66489"
     height="325.97299"
     x="-2.8421709e-14"
     y="0"
     ry="1.8000001" />
  <g
     clip-path="url(#cpMC4wMHw3MjAuMDB8MC4wMHw0NjguMDA=)"
     id="g2"
     transform="translate(-136.494,-63.927574)" />
  <defs
     id="defs3">
    <clipPath
       id="cpNzEuMzB8NjQ4LjcwfDAuMDB8NDY4LjAw">
      <rect
         x="71.300003"
         y="0"
         width="577.40002"
         height="468"
         id="rect3" />
    </clipPath>
  </defs>
  <text
     x="347.43481"
     y="305.07288"
     text-anchor="middle"
     style="font-size:8px;font-family:Arial;white-space:pre;fill:#999999"
     lengthAdjust="spacingAndGlyphs"
     id="text22-6">Fonte: RDOs analisados com a operação |   Julho 2026</text>
  <polygon
     points="286.49,253.28 280.6,254.05 274.72,254.82 268.84,255.6 262.96,256.37 263.67,260.94 264.6,265.47 265.73,269.95 267.08,274.37 268.64,278.72 270.4,283 272.36,287.18 274.51,291.27 276.86,295.25 279.39,299.12 282.1,302.87 284.98,306.48 288.04,309.95 291.25,313.27 294.61,316.44 298.13,319.45 301.78,322.29 305.56,324.95 309.46,327.43 313.47,329.72 317.59,331.82 321.8,333.73 326.1,335.43 330.47,336.93 334.91,338.22 339.4,339.3 343.94,340.16 348.52,340.81 353.12,341.25 357.74,341.46 362.36,341.46 366.98,341.24 371.58,340.8 376.16,340.15 380.7,339.27 385.19,338.19 389.63,336.9 394,335.39 398.3,333.68 402.51,331.78 406.62,329.67 410.63,327.37 414.53,324.89 418.31,322.22 421.95,319.38 425.46,316.37 428.83,313.2 432.03,309.87 435.08,306.4 437.96,302.78 440.67,299.04 443.2,295.17 445.54,291.18 447.69,287.09 449.64,282.9 451.4,278.62 452.95,274.27 454.29,269.85 455.43,265.36 456.35,260.83 457.05,256.27 457.54,251.67 457.81,247.06 457.87,242.43 457.7,237.81 457.32,233.21 456.72,228.62 455.9,224.07 454.87,219.57 453.63,215.11 452.18,210.72 450.53,206.41 448.67,202.18 446.61,198.04 444.36,194 441.93,190.07 439.31,186.26 436.51,182.58 433.54,179.04 430.41,175.63 427.12,172.39 423.69,169.3 420.11,166.37 416.39,163.62 412.55,161.05 408.6,158.66 404.53,156.46 400.36,154.45 396.11,152.65 391.77,151.04 387.37,149.65 382.9,148.46 378.38,147.48 373.82,146.72 369.23,146.18 364.62,145.85 360,145.74 360,151.67 360,157.6 360,163.54 360,169.47 360,175.4 360,181.33 360,187.26 360,193.19 360,199.13 363.77,199.29 367.51,199.77 371.2,200.56 374.81,201.66 378.31,203.07 381.68,204.77 384.9,206.75 387.93,208.99 390.77,211.48 393.38,214.2 395.75,217.14 397.87,220.26 399.71,223.55 401.27,226.99 402.53,230.55 403.48,234.2 404.12,237.92 404.45,241.68 404.45,245.45 404.13,249.21 403.5,252.93 402.56,256.58 401.3,260.14 399.75,263.58 397.92,266.88 395.81,270.01 393.44,272.95 390.84,275.68 388.01,278.18 384.98,280.43 381.77,282.41 378.4,284.12 374.91,285.53 371.3,286.64 367.61,287.45 363.87,287.93 360.1,288.1 356.33,287.95 352.59,287.48 348.9,286.69 345.29,285.6 341.78,284.2 338.41,282.51 335.19,280.54 332.15,278.31 329.31,275.82 326.69,273.1 324.31,270.17 322.19,267.05 320.34,263.77 318.77,260.33 317.5,256.78 316.54,253.13 315.89,249.41 310.01,250.19 304.13,250.96 298.25,251.73 292.37,252.5 "
     style="fill:#e67e22;fill-opacity:1;stroke:#ffffff;stroke-width:3.2;stroke-linecap:butt;stroke-linejoin:miter"
     id="polygon4"
     clip-path="url(#clipPath24)"
     transform="rotate(122.12785,309.42422,173.87904)" />
  <polygon
     points="350.34,170.1 349.56,164.22 348.79,158.34 348.02,152.46 347.25,146.58 342.64,147.29 338.08,148.23 333.56,149.38 329.11,150.74 324.73,152.32 320.42,154.1 316.21,156.08 312.09,158.27 308.09,160.64 304.2,163.21 300.43,165.95 296.81,168.88 293.32,171.97 289.99,175.22 286.81,178.63 283.8,182.19 280.97,185.88 278.31,189.71 275.84,193.65 273.56,197.72 271.47,201.88 269.58,206.14 267.9,210.49 266.43,214.91 265.17,219.39 264.13,223.93 263.3,228.51 262.69,233.13 262.3,237.77 262.13,242.43 262.19,247.09 262.46,251.74 262.96,256.37 268.84,255.6 274.72,254.82 280.6,254.05 286.49,253.28 292.37,252.5 298.25,251.73 304.13,250.96 310.01,250.19 315.89,249.41 315.55,245.55 315.55,241.66 315.89,237.8 316.57,233.98 317.57,230.23 318.9,226.58 320.54,223.06 322.48,219.7 324.71,216.52 327.21,213.55 329.95,210.81 332.92,208.31 336.1,206.09 339.47,204.15 342.98,202.51 346.63,201.18 350.38,200.18 354.2,199.51 353.43,193.62 352.66,187.74 351.88,181.86 351.11,175.98 "
     style="fill:#3498db;stroke:#ffffff;stroke-width:3.2;stroke-linecap:butt;stroke-linejoin:miter"
     id="polygon5"
     clip-path="url(#clipPath23)"
     transform="rotate(122.12785,309.42422,173.87904)" />
  <polygon
     points="360,169.47 360,163.54 360,157.6 360,151.67 360,145.74 353.61,145.95 347.25,146.58 348.02,152.46 348.79,158.34 349.56,164.22 350.34,170.1 351.11,175.98 351.88,181.86 352.66,187.74 353.43,193.62 354.2,199.51 360,199.13 360,193.19 360,187.26 360,181.33 360,175.4 "
     style="fill:#95a5a6;stroke:#ffffff;stroke-width:3.2;stroke-linecap:butt;stroke-linejoin:miter"
     id="polygon6"
     clip-path="url(#clipPath22)"
     transform="rotate(122.12785,309.42422,173.87904)" />
  <path
     id="polyline10"
     clip-path="url(#clipPath17)"
     style="fill:none;stroke:#555555;stroke-width:1.07;stroke-linejoin:round;stroke-miterlimit:10"
     transform="translate(-145.314,-70.702574)"
     d="m 285.89,186.73 -5.88,-4.52 -5.88,-4.51 -5.88,-4.52 h -69.45262" />
  <path
     id="polyline9"
     clip-path="url(#clipPath18)"
     style="fill:none;stroke:#555555;stroke-width:1.07;stroke-linejoin:round;stroke-miterlimit:10"
     transform="translate(-120.65214,-79.068688)"
     d="m 430.23,305.22 5.58,4.89 5.57,4.89 5.58,4.89 h 50.34649" />
  <path
     id="polyline11"
     clip-path="url(#clipPath16)"
     style="fill:none;stroke:#555555;stroke-width:1.07;stroke-linejoin:round;stroke-miterlimit:10"
     transform="translate(-37.054084,-11.432764)"
     d="m 353.9,150.39 19.72647,-21.38552 h 45.14628"
     sodipodi:nodetypes="cc" />
  <text
     x="91.089386"
     y="99.093895"
     style="font-weight:bold;font-size:13.66px;font-family:Arial;text-align:center;text-anchor:middle;fill:#000000"
     lengthAdjust="spacingAndGlyphs"
     id="text11"><tspan
       sodipodi:role="line"
       id="tspan29"
       x="91.089386"
       y="99.093895">Mecânica </tspan><tspan
       sodipodi:role="line"
       id="tspan30"
       x="91.089386"
       y="116.16889">72.9%</tspan></text>
  <text
     x="360.63065"
     y="115.20119"
     text-anchor="end"
     style="font-weight:bold;font-size:13.66px;font-family:Arial;text-align:center;text-anchor:middle;fill:#000000"
     lengthAdjust="spacingAndGlyphs"
     id="text12"><tspan
       sodipodi:role="line"
       id="tspan27"
       x="360.63065"
       y="115.20119">Chuva </tspan><tspan
       sodipodi:role="line"
       id="tspan28"
       x="360.63065"
       y="132.27618">25%</tspan></text>
  <text
     x="354.80173"
     y="237.31818"
     text-anchor="end"
     style="font-weight:bold;font-size:13.66px;font-family:Arial;fill:#000000"
     lengthAdjust="spacingAndGlyphs"
     id="text13"><tspan
       sodipodi:role="line"
       id="tspan25"
       x="354.80173"
       y="237.31818"
       style="text-align:center;text-anchor:middle;fill:#000000">Outros  </tspan><tspan
       sodipodi:role="line"
       id="tspan26"
       x="354.80173"
       y="254.39319"
       style="text-align:center;text-anchor:middle;fill:#000000">2.1%</tspan></text>
  <text
     x="232.19182"
     y="36.444839"
     text-anchor="middle"
     style="font-weight:bold;font-size:18px;font-family:Arial"
     lengthAdjust="spacingAndGlyphs"
     id="text14">SANEPAR: Horas paradas por causa raiz</text>
  <text
     x="232.30827"
     y="54.821083"
     text-anchor="middle"
     style="font-size:11px;font-family:Arial;white-space:pre;fill:#555555"
     lengthAdjust="spacingAndGlyphs"
     id="text19">50h com equipe presente e parada no projeto</text>
</svg>
